<?xml version="1.0" encoding="utf-8"?>
<!-- Generator: Adobe Illustrator 22.1.0, SVG Export Plug-In . SVG Version: 6.00 Build 0)  -->
<svg version="1.1" id="Layer_1" xmlns="http://www.w3.org/2000/svg" xmlns:xlink="http://www.w3.org/1999/xlink" x="0px" y="0px"
	 viewBox="0 0 300 300" style="enable-background:new 0 0 300 300;" xml:space="preserve">
<g>
	<g>
		<path d="M282.9,267.6H17.1V32.4h265.8V267.6z M43.3,241.5h213.5V58.5H43.3V241.5z"/>
		<g>
			<rect x="213.5" y="159.4" transform="matrix(0.6575 -0.7535 0.7535 0.6575 -85.7538 244.9409)" width="26.1" height="114.8"/>
			<rect x="60.8" y="25.6" transform="matrix(0.6575 -0.7535 0.7535 0.6575 -37.6552 84.2559)" width="26.1" height="115.9"/>
			<rect x="168.2" y="70.5" transform="matrix(0.7535 -0.6575 0.6575 0.7535 0.8252 169.2931)" width="115.9" height="26.1"/>
			<rect x="16" y="203.7" transform="matrix(0.7535 -0.6575 0.6575 0.7535 -124.4312 101.7491)" width="114.8" height="26.1"/>
			<path d="M150,230.8l-80.1-80.1L150,70.6l80.1,80.1L150,230.8z M106.9,150.7l43.1,43.1l43.1-43.1L150,107.6L106.9,150.7z"/>
			<rect x="30.2" y="137.7" width="58.2" height="26.1"/>
			<rect x="208.2" y="137.7" width="58.2" height="26.1"/>
			<rect x="136.9" y="45.5" width="26.1" height="46.6"/>
			<rect x="136.9" y="208.9" width="26.1" height="46.6"/>
		</g>
	</g>
</g>
</svg>
