<?xml version="1.0" encoding="utf-8"?>
<!-- Generator: Adobe Illustrator 22.1.0, SVG Export Plug-In . SVG Version: 6.00 Build 0)  -->
<svg version="1.1" id="Layer_1" xmlns="http://www.w3.org/2000/svg" xmlns:xlink="http://www.w3.org/1999/xlink" x="0px" y="0px"
	 viewBox="0 0 300 300" style="enable-background:new 0 0 300 300;" xml:space="preserve">
<style type="text/css">
	.st0{fill:#A5E3E1;}
	.st1{fill:#303351;}
</style>
<g>
	<path class="st0" d="M150,20.5H21.1v258.9l128.9-1l128.9,1V20.5H150z M254.5,254.2L150,253.4l-104.5,0.8V44.9H150h104.5V254.2z"/>
	<path class="st1" d="M285,285.6l-135-1.1l-135,1.1V14.4h270V285.6z M150,272.3L150,272.3l122.8,1V26.6H27.2v246.7L150,272.3z"/>
	<path class="st1" d="M260.6,260.3L150,259.5l-110.6,0.9V38.8h221.2V260.3z M150,247.4L150,247.4l98.5,0.8V50.9h-197v197.2
		L150,247.4z"/>
	<g>
		<path class="st1" d="M225.5,216.9H74.6V83.4h150.9V216.9z M89.4,202.1h121.2V98.2H89.4V202.1z"/>
		
			<rect x="186" y="155.5" transform="matrix(0.6575 -0.7534 0.7534 0.6575 -75.4472 210.1791)" class="st1" width="14.8" height="65.2"/>
		
			<rect x="99.3" y="79.5" transform="matrix(0.6575 -0.7534 0.7534 0.6575 -48.1351 118.9366)" class="st1" width="14.8" height="65.8"/>
		
			<rect x="160.3" y="105" transform="matrix(0.7535 -0.6575 0.6575 0.7535 -26.2706 154.7719)" class="st1" width="65.8" height="14.8"/>
		
			<rect x="73.9" y="180.7" transform="matrix(0.7535 -0.6575 0.6575 0.7535 -97.3945 116.4191)" class="st1" width="65.2" height="14.8"/>
		<path class="st1" d="M150,196l-45.5-45.5l45.5-45.5l45.5,45.5L150,196z M125.5,150.6L150,175l24.5-24.5L150,126.1L125.5,150.6z"/>
		<rect x="82" y="143.1" class="st1" width="33.1" height="14.8"/>
		<rect x="183" y="143.1" class="st1" width="33.1" height="14.8"/>
		<rect x="142.6" y="90.8" class="st1" width="14.8" height="26.4"/>
		<rect x="142.6" y="183.6" class="st1" width="14.8" height="26.4"/>
	</g>
</g>
</svg>
