<?xml version="1.0" encoding="UTF-8" standalone="no"?>
<svg width="196px" height="196px" viewBox="0 0 196 196" version="1.1" xmlns="http://www.w3.org/2000/svg" xmlns:xlink="http://www.w3.org/1999/xlink">
    <!-- Generator: Sketch 39.1 (31720) - http://www.bohemiancoding.com/sketch -->
    <title>Group</title>
    <desc>Created with Sketch.</desc>
    <defs>
        <linearGradient x1="-2.58468474%" y1="106.817223%" x2="67.9622834%" y2="30.1814806%" id="linearGradient-1">
            <stop stop-color="#AB6D96" offset="0%"></stop>
            <stop stop-color="#422754" offset="100%"></stop>
        </linearGradient>
    </defs>
    <g id="Page-1" stroke="none" stroke-width="1" fill="none" fill-rule="evenodd">
        <g id="Group" fill="url(#linearGradient-1)">
            <path d="M195.643836,37.7863014 C195.643836,36.1589041 194.830137,34.5315068 193.473973,33.4465753 L149.263014,1.44109589 C148.449315,0.898630137 147.093151,0.356164384 146.008219,0.356164384 L49.7205479,0.356164384 C48.6356164,0.356164384 47.5506849,0.62739726 46.4657534,1.44109589 L2.5260274,33.4465753 C1.16986301,34.5315068 0.356164384,36.1589041 0.356164384,37.7863014 L0.356164384,57.3150685 C0.356164384,62.1972603 1.98356164,66.8082192 4.96712329,70.3342466 L4.96712329,190.219178 C4.96712329,193.20274 7.40821918,195.643836 10.3917808,195.643836 L185.608219,195.643836 C188.591781,195.643836 191.032877,193.20274 191.032877,190.219178 L191.032877,70.3342466 C194.016438,66.8082192 195.643836,62.1972603 195.643836,57.3150685 L195.643836,37.7863014 L195.643836,37.7863014 Z M144.380822,11.2054795 L173.673973,32.3616438 L161.739726,32.3616438 L142.210959,11.2054795 L144.380822,11.2054795 L144.380822,11.2054795 Z M154.145205,43.2109589 L154.145205,57.3150685 C154.145205,62.739726 149.805479,67.3506849 144.109589,67.3506849 C138.684932,67.3506849 134.073973,63.0109589 134.073973,57.3150685 L134.073973,43.2109589 L154.145205,43.2109589 L154.145205,43.2109589 Z M127.835616,11.2054795 L147.364384,32.3616438 L132.446575,32.3616438 L122.682192,11.2054795 L127.835616,11.2054795 L127.835616,11.2054795 Z M103.424658,11.2054795 L110.476712,11.2054795 L120.241096,32.3616438 L103.424658,32.3616438 L103.424658,11.2054795 L103.424658,11.2054795 Z M103.424658,43.2109589 L123.224658,43.2109589 L123.224658,57.3150685 C123.224658,62.739726 118.884932,67.3506849 113.189041,67.3506849 C107.764384,67.3506849 103.153425,63.0109589 103.153425,57.3150685 L103.153425,43.2109589 L103.424658,43.2109589 Z M85.5232877,11.2054795 L92.5753425,11.2054795 L92.5753425,32.3616438 L75.7589041,32.3616438 L85.5232877,11.2054795 L85.5232877,11.2054795 Z M92.5753425,43.2109589 L92.5753425,57.3150685 C92.5753425,62.739726 88.2356164,67.3506849 82.539726,67.3506849 C77.1150685,67.3506849 72.5041096,63.0109589 72.5041096,57.3150685 L72.5041096,43.2109589 L92.5753425,43.2109589 L92.5753425,43.2109589 Z M68.1643836,11.2054795 L73.3178082,11.2054795 L63.5534247,32.3616438 L48.6356164,32.3616438 L68.1643836,11.2054795 L68.1643836,11.2054795 Z M61.9260274,43.2109589 L61.9260274,57.3150685 C61.9260274,62.739726 57.5863014,67.3506849 51.890411,67.3506849 C46.4657534,67.3506849 41.8547945,63.0109589 41.8547945,57.3150685 L41.8547945,43.2109589 L61.9260274,43.2109589 L61.9260274,43.2109589 Z M51.6191781,11.2054795 L53.5178082,11.2054795 L34.260274,32.3616438 L22.3260274,32.3616438 L51.6191781,11.2054795 L51.6191781,11.2054795 Z M11.2054795,57.3150685 L11.2054795,43.2109589 L31.0054795,43.2109589 L31.0054795,57.3150685 C31.0054795,62.739726 26.6657534,67.3506849 20.969863,67.3506849 C15.5452055,67.3506849 11.2054795,62.739726 11.2054795,57.3150685 L11.2054795,57.3150685 Z M85.5232877,184.794521 L40.769863,184.794521 L40.769863,96.6438356 L85.5232877,96.6438356 L85.5232877,184.794521 L85.5232877,184.794521 Z M180.183562,184.794521 L96.3726027,184.794521 L96.3726027,91.2191781 C96.3726027,88.2356164 93.9315068,85.7945205 90.9479452,85.7945205 L35.3452055,85.7945205 C32.3616438,85.7945205 29.9205479,88.2356164 29.9205479,91.2191781 L29.9205479,184.794521 L15.8164384,184.794521 L15.8164384,77.3863014 C17.4438356,77.9287671 19.3424658,78.2 21.2410959,78.2 C27.2082192,78.2 32.9041096,75.4876712 36.7013699,71.4191781 C40.4986301,75.4876712 45.9232877,78.2 52.1616438,78.2 C58.1287671,78.2 63.8246575,75.4876712 67.6219178,71.4191781 C71.4191781,75.4876712 76.8438356,78.2 83.0821918,78.2 C89.3205479,78.2 94.7452055,75.4876712 98.5424658,71.4191781 C102.339726,75.4876712 107.764384,78.2 114.00274,78.2 C119.969863,78.2 125.665753,75.4876712 129.463014,71.4191781 C133.260274,75.4876712 138.684932,78.2 144.923288,78.2 C150.890411,78.2 156.586301,75.4876712 160.383562,71.4191781 C164.180822,75.4876712 169.605479,78.2 175.843836,78.2 C177.742466,78.2 179.369863,77.9287671 181.268493,77.3863014 L181.268493,184.794521 L180.183562,184.794521 Z M184.794521,57.3150685 C184.794521,62.739726 180.454795,67.3506849 174.758904,67.3506849 C169.334247,67.3506849 164.723288,63.0109589 164.723288,57.3150685 L164.723288,43.2109589 L184.523288,43.2109589 L184.523288,57.3150685 L184.794521,57.3150685 Z" id="Shape"></path>
            <path d="M163.367123,100.441096 L114.00274,100.441096 C111.019178,100.441096 108.578082,102.882192 108.578082,105.865753 L108.578082,147.093151 C108.578082,150.076712 111.019178,152.517808 114.00274,152.517808 L163.367123,152.517808 C166.350685,152.517808 168.791781,150.076712 168.791781,147.093151 L168.791781,105.865753 C168.791781,102.882192 166.350685,100.441096 163.367123,100.441096 L163.367123,100.441096 Z M157.942466,141.668493 L119.427397,141.668493 L119.427397,111.290411 L157.942466,111.290411 L157.942466,141.668493 L157.942466,141.668493 Z" id="Shape"></path>
        </g>
    </g>
</svg>