<svg width="778" height="778" viewBox="0 0 778 778" fill="none" xmlns="http://www.w3.org/2000/svg">
<rect x="68" y="67" width="642" height="645" fill="#0C0D0D"/>
<path d="M389.496 82H83V697.747L389.496 695.368L695.991 697.747V82H389.496ZM637.973 637.813L389.496 635.91L141.018 637.813V140.031H389.496H637.973V637.813Z" fill="#A5E3E1"/>
<path d="M710 712L389 709.384L68 712V67H710V712ZM389 680.368L680.991 682.747V96.0155H97.0089V682.747L389 680.368Z" fill="#0C0D0D"/>
<path d="M651.964 652.798L388.982 650.895L126 653.035V126H651.964V652.798ZM388.982 622.117L623.193 624.02V154.778H154.771V623.782L388.982 622.117Z" fill="#0C0D0D"/>
<path d="M568.807 548.506H210V231H568.807V548.506ZM245.191 513.306H533.378V266.199H245.191V513.306Z" fill="white"/>
<path d="M445.715 415.885L422.577 442.404L539.378 544.36L562.516 517.841L445.715 415.885Z" fill="white"/>
<path d="M238.963 235.388L215.825 261.907L333.7 364.801L356.839 338.282L238.963 235.388Z" fill="white"/>
<path d="M539.401 235.349L421.51 338.243L444.648 364.766L562.539 261.872L539.401 235.349Z" fill="white"/>
<path d="M332.759 415.839L215.943 517.795L239.082 544.317L355.897 442.361L332.759 415.839Z" fill="white"/>
<path d="M389.284 498.799L281.095 390.585L389.284 282.372L497.473 390.585L389.284 498.799ZM331.029 390.823L389.284 448.854L447.54 390.585L389.284 332.554L331.029 390.823Z" fill="white"/>
<path d="M306.3 372.986H227.595V408.185H306.3V372.986Z" fill="white"/>
<path d="M546.455 372.986H467.751V408.185H546.455V372.986Z" fill="white"/>
<path d="M406.88 248.599H371.689V311.387H406.88V248.599Z" fill="white"/>
<path d="M406.88 469.307H371.689V532.095H406.88V469.307Z" fill="white"/>
</svg>
